<?xml version="1.0" encoding="UTF-8"?> <!-- Generator: Adobe Illustrator 19.0.0, SVG Export Plug-In . SVG Version: 6.00 Build 0) --> <svg xmlns="http://www.w3.org/2000/svg" xmlns:xlink="http://www.w3.org/1999/xlink" id="Layer_1" x="0px" y="0px" viewBox="-22.6 0 34 22.7" style="enable-background:new -22.6 0 34 22.7;" xml:space="preserve"> <style type="text/css"> .st0{fill-rule:evenodd;clip-rule:evenodd;fill:#C83349;} .st1{fill-rule:evenodd;clip-rule:evenodd;fill:#EEB529;} .st2{fill-rule:evenodd;clip-rule:evenodd;fill:#1666AA;} </style> <g> <path class="st0" d="M-22.3,14.6h10.9V8.1h-10.9V14.6L-22.3,14.6z M-20.2,9.9h2.5v0l3.1,0c0.5,0,1,0.4,1,1c0,0.5-0.4,1-1,1h-0.3 l1.5,1.1h-2.3l-1.2-1.1h-0.8v1.1h-2.5V9.9L-20.2,9.9z"></path> <path class="st0" d="M-16,10.8c0-0.3-0.2-0.5-0.5-0.5h-1.3v0.9l1.3,0C-16.2,11.3-16,11-16,10.8L-16,10.8z"></path> <path class="st1" d="M-11,14.6h10.9V8.1H-11V14.6L-11,14.6z M-8.8,9.9h6.7v0.6h-2V13h-2.7v-2.6h-2V9.9L-8.8,9.9z"></path> <path class="st2" d="M0.3,8.1v6.5h10.9V8.1H0.3L0.3,8.1z M7.5,13H2.8V9.9h2.7v2.6h2V13L7.5,13z"></path> </g> </svg> 