<?xml version="1.0" encoding="UTF-8"?> <!-- Generator: Adobe Illustrator 19.0.0, SVG Export Plug-In . SVG Version: 6.00 Build 0) --> <svg xmlns="http://www.w3.org/2000/svg" xmlns:xlink="http://www.w3.org/1999/xlink" id="Layer_1" x="0px" y="0px" viewBox="-22.6 0 34 22.7" style="enable-background:new -22.6 0 34 22.7;" xml:space="preserve"> <g> <path d="M-11,14.5h1.2l0.5-1.1h2.7l-0.5-1h-1.7l0.9-1.9l0.1,0.2l0,0l1.9,3.8h1.2l-3.2-6.3L-11,14.5z M-2.4,14.5h1.1v-3.8l4.3,3.8 v-1.5l-5.3-4.8V14.5z M1.8,8.2v3.6l1.1,1V8.2H1.8z M5.9,9.2h2V8.2h-2L5.9,9.2z M8,8.2v6.3h1V9.2h2.1V8.2H8z M-13,8.2L-15,12 l0.6,1.2l2.5-5H-13z M-19,11.9l0.6,1.2l1.3-2.6l2,4l0.6-1.2l-2.6-5.1L-19,11.9z M-22.3,8.2l3.2,6.3l0.6-1.2l-0.6-1.2l0,0l-2-4 H-22.3z"></path> </g> </svg> 