<?xml version="1.0" encoding="UTF-8"?> <!-- Generator: Adobe Illustrator 19.0.0, SVG Export Plug-In . SVG Version: 6.00 Build 0) --> <svg xmlns="http://www.w3.org/2000/svg" xmlns:xlink="http://www.w3.org/1999/xlink" id="Layer_1" x="0px" y="0px" viewBox="-24 0 36.9 22.7" style="enable-background:new -24 0 36.9 22.7;" xml:space="preserve"> <style type="text/css"> .st0{fill:#291BCD;} </style> <g> <path class="st0" d="M-15.7,13h-2c-0.1,0-0.1,0-0.1-0.1v-1c0-0.1,0-0.1,0.1-0.1h1.8c0.1,0,0.1,0,0.1-0.1v-0.8c0-0.1,0-0.1-0.1-0.1 h-1.8c-0.1,0-0.1,0-0.1-0.1V9.8c0-0.1,0-0.1,0.1-0.1h2c0.1,0,0.1,0,0.1-0.1V8.8c0-0.1,0-0.1-0.1-0.1h-3.1c-0.1,0-0.1,0-0.1,0.1v5.1 c0,0.1,0,0.1,0.1,0.1h3.2c0.1,0,0.1,0,0.1-0.1v-0.8C-15.6,13-15.6,13-15.7,13z M-9.5,8.7h-0.9c-0.1,0-0.1,0-0.1,0.1v1 c0,0.2,0,0.2,0,0.2c0,0.1,0,0.1,0,0.2l-0.2,1l-0.2,1c0,0.1,0,0.1,0,0l-0.2-0.9l-0.3-1.3c0-0.1,0-0.2,0-0.2c0-0.1,0-0.1,0-0.2V8.8 c0-0.1,0-0.1-0.1-0.1h-0.8c-0.1,0-0.1,0-0.1,0.1v1c0,0.2,0,0.2,0,0.2c0,0.1,0,0.1,0,0.2l-0.4,1.9l0,0.2c0,0.1,0,0.1,0,0l0-0.1 l-0.5-2c0-0.1,0-0.2,0-0.2V8.8c0-0.1,0-0.1-0.1-0.1h-0.9c-0.1,0-0.1,0-0.1,0.1v1.1c0,0.2,0,0.4,0,0.4c0,0,0.3,1.3,0.6,2.3l0.4,1.3 c0,0.1,0.1,0.1,0.1,0.1h1c0.1,0,0.1,0,0.1-0.1l0.5-1.8c0-0.1,0-0.1,0,0l0.5,1.8c0,0.1,0.1,0.1,0.1,0.1h1c0.1,0,0.1,0,0.1-0.1 l0.8-2.9l0.2-0.6c0-0.1,0.1-0.3,0.1-0.3c0-0.1,0-0.1,0-0.2v-1C-9.4,8.7-9.4,8.7-9.5,8.7z M-20,8.7H-21c-0.1,0-0.1,0-0.1,0.1v2 c0,0.1,0,0.1-0.1,0l-1.6-2c0,0-0.1-0.1-0.2-0.1h-0.9c0,0-0.1,0-0.1,0.1v5.1c0,0.1,0,0.1,0.1,0.1h0.9c0.1,0,0.1,0,0.1-0.1v-3.1 c0-0.1,0-0.1,0.1,0l1.5,2c0,0,0.1,0.1,0.1,0.2v0.9c0,0.1,0,0.1,0.1,0.1h0.9c0.1,0,0.1,0,0.1-0.1V8.8C-19.9,8.7-20,8.7-20,8.7z M-3.5,13.9v-1.1c0-0.2,0-0.3-0.1-0.5l-1.2-3.5c0,0-0.1-0.1-0.1-0.1h-1c-0.1,0-0.1,0-0.1,0.1l-1.2,3.5c-0.1,0.2-0.1,0.3-0.1,0.5 v1.1c0,0.1,0,0.1,0.1,0.1h0.9c0.1,0,0.1,0,0.1-0.1V13c0-0.1,0-0.1,0.1-0.1h1.4c0.1,0,0.1,0,0.1,0.1v0.9c0,0.1,0,0.1,0.1,0.1 L-3.5,13.9C-3.6,14-3.5,13.9-3.5,13.9L-3.5,13.9z M-5,11.9h-1c0,0-0.1,0-0.1-0.1l0.4-1.3l0.1-0.5c0,0,0,0,0,0l0.1,0.5L-5,11.9 C-4.9,11.9-4.9,11.9-5,11.9z M7.1,8.8c0,0-0.1-0.1-0.1-0.1h-1c-0.1,0-0.1,0-0.1,0.1l-1.2,3.5c-0.1,0.2-0.1,0.3-0.1,0.5v1.1 c0,0.1,0,0.1,0.1,0.1h0.9c0,0,0.1,0,0.1,0c0,0,0,0,0-0.1V13c0-0.1,0-0.1,0.1-0.1h1.4c0.1,0,0.1,0,0.1,0.1v0.9c0,0.1,0,0.1,0.1,0.1 h0.9c0.1,0,0.1,0,0.1-0.1v-1.1c0-0.2,0-0.3-0.1-0.5L7.1,8.8z M6.9,11.9h-1c0,0-0.1,0-0.1-0.1L6.4,10c0,0,0,0,0,0L6.9,11.9 C7,11.9,7,11.9,6.9,11.9z M-2.3,13.9c0,0.1,0,0.1,0.1,0.1h1c0.1,0,0.1,0,0.1-0.1V9.8c0-0.1,0-0.1,0.1-0.1h1c0.1,0,0.1,0,0.1-0.1 V8.8c0-0.1,0-0.1-0.1-0.1h-3.4c-0.1,0-0.1,0-0.1,0.1v0.8c0,0.1,0,0.1,0.1,0.1h1c0.1,0,0.1,0,0.1,0.1L-2.3,13.9L-2.3,13.9z M12,11 l-1.7-0.4c-0.1,0-0.2-0.1-0.2-0.2V9.8c0-0.1,0.1-0.2,0.2-0.2h1c0.1,0,0.2,0.1,0.2,0.2v0.4c0,0.1,0,0.1,0.1,0.1h0.9 c0.1,0,0.1,0,0.1-0.1V9.8c0-0.7-0.4-1.1-1.1-1.1h-1.5C9.4,8.7,9,9.1,9,9.8v0.8c0,0.6,0.3,0.9,0.7,0.9l1.7,0.4 c0.1,0,0.2,0.1,0.2,0.2v0.6c0,0.1-0.1,0.2-0.2,0.2h-1.1c-0.1,0-0.2-0.1-0.2-0.2v-0.3c0-0.1,0-0.1-0.1-0.1H9.1c-0.1,0-0.1,0-0.1,0.1 v0.4c0,0.7,0.4,1.1,1.1,1.1h1.6c0.7,0,1.1-0.4,1.1-1.1v-0.9C12.7,11.5,12.5,11.2,12,11L12,11z M2,12.9C2,12.9,2,13,2.1,13h1.6 c0.1,0,0.1,0,0.1,0.1v0.8c0,0.1,0,0.1-0.1,0.1H0.9c-0.1,0-0.1,0-0.1-0.1V8.8c0-0.1,0-0.1,0.1-0.1h1c0.1,0,0.1,0,0.1,0.1 C2,8.8,2,12.9,2,12.9z"></path> </g> </svg> 