<?xml version="1.0" encoding="UTF-8"?> <!-- Generator: Adobe Illustrator 19.0.0, SVG Export Plug-In . SVG Version: 6.00 Build 0) --> <svg xmlns="http://www.w3.org/2000/svg" xmlns:xlink="http://www.w3.org/1999/xlink" id="Layer_1" x="0px" y="0px" viewBox="0 0 48.2 22.7" style="enable-background:new 0 0 48.2 22.7;" xml:space="preserve"> <style type="text/css"> .st0{clip-path:url(#XMLID_88_);} .st1{clip-path:url(#XMLID_89_);fill:#DA562F;} .st2{clip-path:url(#SVGID_2_);} .st3{clip-path:url(#XMLID_90_);fill:#FFFFFF;} .st4{clip-path:url(#SVGID_4_);} .st5{clip-path:url(#XMLID_91_);fill:#DA562F;} .st6{clip-path:url(#XMLID_92_);} .st7{clip-path:url(#XMLID_93_);fill:#DA562F;} .st8{clip-path:url(#SVGID_6_);} .st9{clip-path:url(#XMLID_94_);fill:#DA562F;} .st10{clip-path:url(#SVGID_8_);} .st11{clip-path:url(#XMLID_95_);fill:#DA562F;} .st12{clip-path:url(#XMLID_96_);} .st13{clip-path:url(#XMLID_97_);fill:#DA562F;} .st14{clip-path:url(#XMLID_98_);} .st15{clip-path:url(#XMLID_99_);fill:#DA562F;} .st16{clip-path:url(#XMLID_100_);} .st17{clip-path:url(#XMLID_101_);fill:#DA562F;} .st18{clip-path:url(#XMLID_102_);} .st19{clip-path:url(#XMLID_103_);fill:#DA562F;} .st20{clip-path:url(#XMLID_104_);} .st21{clip-path:url(#XMLID_105_);fill:#DA562F;} .st22{clip-path:url(#XMLID_106_);} .st23{clip-path:url(#XMLID_107_);fill:#DA562F;} .st24{clip-path:url(#XMLID_108_);} .st25{clip-path:url(#XMLID_109_);enable-background:new ;} .st26{clip-path:url(#XMLID_110_);} .st27{clip-path:url(#XMLID_111_);} .st28{clip-path:url(#XMLID_112_);fill:#DA562F;} </style> <g id="XMLID_1_"> <g> <defs> <path id="XMLID_77_" d="M11.4,11.6c0,3.1-2.5,5.6-5.6,5.6c-3.1,0-5.6-2.5-5.6-5.6S2.8,6,5.9,6C8.9,6,11.4,8.5,11.4,11.6"></path> </defs> <clipPath id="XMLID_88_"> <use xlink:href="#XMLID_77_" style="overflow:visible;"></use> </clipPath> <g class="st0"> <defs> <rect id="XMLID_78_" x="-295.4" y="-1498.8" width="564.9" height="1765.8"></rect> </defs> <clipPath id="XMLID_89_"> <use xlink:href="#XMLID_78_" style="overflow:visible;"></use> </clipPath> <rect id="XMLID_79_" x="-1.2" y="4.6" class="st1" width="14.1" height="14.1"></rect> </g> </g> <g> <defs> <path id="SVGID_1_" d="M6.6,8.8L6.6,8.8H3.9v5.6H5v-1.7h1.6v0c1.1,0,1.9-0.9,1.9-2C8.6,9.7,7.7,8.8,6.6,8.8 M6.6,11.7L6.6,11.7 l-1.6,0V10h1.6v0c0.5,0,0.8,0.4,0.8,0.8C7.5,11.3,7.1,11.7,6.6,11.7"></path> </defs> <clipPath id="SVGID_2_"> <use xlink:href="#SVGID_1_" style="overflow:visible;"></use> </clipPath> <g class="st2"> <defs> <rect id="XMLID_75_" x="-295.4" y="-1498.8" width="564.9" height="1765.8"></rect> </defs> <clipPath id="XMLID_90_"> <use xlink:href="#XMLID_75_" style="overflow:visible;"></use> </clipPath> <rect id="XMLID_76_" x="2.5" y="7.4" class="st3" width="7.6" height="8.6"></rect> </g> </g> <g> <defs> <path id="SVGID_3_" d="M15.1,13.5V9.8h1.7c0.8,0,1.2,0.5,1.2,1.2c0,0.6-0.4,1.2-1.2,1.2h-0.9v1.4H15.1z M17.3,10.9 c0-0.3-0.2-0.5-0.5-0.5h-0.8v1h0.8C17.1,11.4,17.3,11.2,17.3,10.9z"></path> </defs> <clipPath id="SVGID_4_"> <use xlink:href="#SVGID_3_" style="overflow:visible;"></use> </clipPath> <g class="st4"> <defs> <rect id="XMLID_71_" x="-295.4" y="-1498.8" width="564.9" height="1765.8"></rect> </defs> <clipPath id="XMLID_91_"> <use xlink:href="#XMLID_71_" style="overflow:visible;"></use> </clipPath> <rect id="XMLID_72_" x="13.7" y="8.3" class="st5" width="5.9" height="6.7"></rect> </g> </g> <g> <defs> <path id="XMLID_66_" d="M18.5,13.5v-2.7h0.7v0.4c0.2-0.2,0.5-0.4,0.9-0.4v0.7c-0.1,0-0.1,0-0.2,0c-0.2,0-0.5,0.1-0.7,0.3v1.8 H18.5z"></path> </defs> <clipPath id="XMLID_92_"> <use xlink:href="#XMLID_66_" style="overflow:visible;"></use> </clipPath> <g class="st6"> <defs> <rect id="XMLID_67_" x="-295.4" y="-1498.8" width="564.9" height="1765.8"></rect> </defs> <clipPath id="XMLID_93_"> <use xlink:href="#XMLID_67_" style="overflow:visible;"></use> </clipPath> <rect id="XMLID_68_" x="17.1" y="9.2" class="st7" width="4.5" height="5.8"></rect> </g> </g> <g> <defs> <path id="SVGID_5_" d="M20.4,12.1c0-0.8,0.5-1.4,1.4-1.4c0.9,0,1.4,0.6,1.4,1.4c0,0.8-0.5,1.4-1.4,1.4 C20.9,13.5,20.4,12.8,20.4,12.1 M22.4,12.1c0-0.4-0.2-0.8-0.7-0.8c-0.4,0-0.7,0.4-0.7,0.8c0,0.4,0.2,0.8,0.7,0.8 C22.2,12.9,22.4,12.5,22.4,12.1"></path> </defs> <clipPath id="SVGID_6_"> <use xlink:href="#SVGID_5_" style="overflow:visible;"></use> </clipPath> <g class="st8"> <defs> <rect id="XMLID_64_" x="-295.4" y="-1498.8" width="564.9" height="1765.8"></rect> </defs> <clipPath id="XMLID_94_"> <use xlink:href="#XMLID_64_" style="overflow:visible;"></use> </clipPath> <rect id="XMLID_65_" x="18.9" y="9.2" class="st9" width="5.7" height="5.8"></rect> </g> </g> <g> <defs> <path id="SVGID_7_" d="M25.5,13.5v-0.4c-0.2,0.3-0.5,0.4-0.8,0.4c-0.7,0-1.2-0.5-1.2-1.4c0-0.9,0.5-1.4,1.2-1.4 c0.3,0,0.6,0.1,0.8,0.4V9.8h0.7v3.7H25.5z M25.5,12.6v-0.9c-0.1-0.2-0.4-0.3-0.6-0.3c-0.4,0-0.7,0.3-0.7,0.8 c0,0.5,0.3,0.8,0.7,0.8C25.1,12.9,25.4,12.7,25.5,12.6z"></path> </defs> <clipPath id="SVGID_8_"> <use xlink:href="#SVGID_7_" style="overflow:visible;"></use> </clipPath> <g class="st10"> <defs> <rect id="XMLID_60_" x="-295.4" y="-1498.8" width="564.9" height="1765.8"></rect> </defs> <clipPath id="XMLID_95_"> <use xlink:href="#XMLID_60_" style="overflow:visible;"></use> </clipPath> <rect id="XMLID_61_" x="22" y="8.3" class="st11" width="5.6" height="6.7"></rect> </g> </g> <g> <defs> <path id="XMLID_48_" d="M28.7,13.5v-0.4c-0.2,0.2-0.5,0.4-0.9,0.4c-0.6,0-0.9-0.3-0.9-0.8v-1.9h0.7v1.6c0,0.4,0.2,0.5,0.5,0.5 c0.3,0,0.5-0.1,0.6-0.3v-1.8h0.7v2.7H28.7z"></path> </defs> <clipPath id="XMLID_96_"> <use xlink:href="#XMLID_48_" style="overflow:visible;"></use> </clipPath> <g class="st12"> <defs> <rect id="XMLID_56_" x="-295.4" y="-1498.8" width="564.9" height="1765.8"></rect> </defs> <clipPath id="XMLID_97_"> <use xlink:href="#XMLID_56_" style="overflow:visible;"></use> </clipPath> <rect id="XMLID_57_" x="25.4" y="9.3" class="st13" width="5.4" height="5.7"></rect> </g> </g> <g> <defs> <path id="XMLID_45_" d="M29.9,12.1c0-0.8,0.6-1.4,1.4-1.4c0.5,0,0.9,0.2,1.1,0.5l-0.5,0.4c-0.1-0.2-0.3-0.3-0.6-0.3 c-0.4,0-0.7,0.3-0.7,0.8c0,0.5,0.3,0.8,0.7,0.8c0.2,0,0.4-0.1,0.6-0.3l0.5,0.4c-0.2,0.2-0.5,0.5-1.1,0.5 C30.5,13.5,29.9,12.9,29.9,12.1"></path> </defs> <clipPath id="XMLID_98_"> <use xlink:href="#XMLID_45_" style="overflow:visible;"></use> </clipPath> <g class="st14"> <defs> <rect id="XMLID_46_" x="-295.4" y="-1498.8" width="564.9" height="1765.8"></rect> </defs> <clipPath id="XMLID_99_"> <use xlink:href="#XMLID_46_" style="overflow:visible;"></use> </clipPath> <rect id="XMLID_47_" x="28.4" y="9.2" class="st15" width="5.4" height="5.8"></rect> </g> </g> <g> <defs> <path id="XMLID_42_" d="M32.9,12.8v-1.4h-0.4v-0.6h0.4V10h0.7v0.7h0.5v0.6h-0.5v1.2c0,0.2,0.1,0.3,0.2,0.3c0.1,0,0.2,0,0.2-0.1 l0.1,0.5c-0.1,0.1-0.3,0.2-0.6,0.2C33.2,13.5,32.9,13.2,32.9,12.8"></path> </defs> <clipPath id="XMLID_100_"> <use xlink:href="#XMLID_42_" style="overflow:visible;"></use> </clipPath> <g class="st16"> <defs> <rect id="XMLID_43_" x="-295.4" y="-1498.8" width="564.9" height="1765.8"></rect> </defs> <clipPath id="XMLID_101_"> <use xlink:href="#XMLID_43_" style="overflow:visible;"></use> </clipPath> <rect id="XMLID_44_" x="31" y="8.6" class="st17" width="4.7" height="6.4"></rect> </g> </g> <g> <defs> <polygon id="XMLID_39_" points="38.6,13.5 38.6,11.9 36.9,11.9 36.9,13.5 36.1,13.5 36.1,9.8 36.9,9.8 36.9,11.2 38.6,11.2 38.6,9.8 39.4,9.8 39.4,13.5 "></polygon> </defs> <clipPath id="XMLID_102_"> <use xlink:href="#XMLID_39_" style="overflow:visible;"></use> </clipPath> <g class="st18"> <defs> <rect id="XMLID_40_" x="-295.4" y="-1498.8" width="564.9" height="1765.8"></rect> </defs> <clipPath id="XMLID_103_"> <use xlink:href="#XMLID_40_" style="overflow:visible;"></use> </clipPath> <rect id="XMLID_41_" x="34.7" y="8.3" class="st19" width="6.2" height="6.7"></rect> </g> </g> <g> <defs> <path id="XMLID_36_" d="M41.9,13.5v-0.4c-0.2,0.2-0.5,0.4-0.9,0.4c-0.6,0-0.9-0.3-0.9-0.8v-1.9h0.7v1.6c0,0.4,0.2,0.5,0.5,0.5 c0.3,0,0.5-0.1,0.6-0.3v-1.8h0.7v2.7H41.9z"></path> </defs> <clipPath id="XMLID_104_"> <use xlink:href="#XMLID_36_" style="overflow:visible;"></use> </clipPath> <g class="st20"> <defs> <rect id="XMLID_37_" x="-295.4" y="-1498.8" width="564.9" height="1765.8"></rect> </defs> <clipPath id="XMLID_105_"> <use xlink:href="#XMLID_37_" style="overflow:visible;"></use> </clipPath> <rect id="XMLID_38_" x="38.6" y="9.3" class="st21" width="5.4" height="5.7"></rect> </g> </g> <g> <defs> <path id="XMLID_30_" d="M45,13.5v-1.7c0-0.4-0.2-0.5-0.5-0.5c-0.3,0-0.5,0.2-0.6,0.3v1.9h-0.7v-2.7h0.7v0.3 c0.2-0.2,0.5-0.4,0.9-0.4c0.6,0,0.9,0.3,0.9,0.9v2H45z"></path> </defs> <clipPath id="XMLID_106_"> <use xlink:href="#XMLID_30_" style="overflow:visible;"></use> </clipPath> <g class="st22"> <defs> <rect id="XMLID_31_" x="-295.4" y="-1498.8" width="564.9" height="1765.8"></rect> </defs> <clipPath id="XMLID_107_"> <use xlink:href="#XMLID_31_" style="overflow:visible;"></use> </clipPath> <rect id="XMLID_32_" x="41.8" y="9.2" class="st23" width="5.4" height="5.8"></rect> </g> </g> <g> <defs> <rect id="XMLID_24_" x="46.1" y="10" width="1.8" height="3.5"></rect> </defs> <clipPath id="XMLID_108_"> <use xlink:href="#XMLID_24_" style="overflow:visible;"></use> </clipPath> <g class="st24"> <defs> <rect id="XMLID_25_" x="-295.4" y="-1498.8" width="564.9" height="1765.8"></rect> </defs> <clipPath id="XMLID_109_"> <use xlink:href="#XMLID_25_" style="overflow:visible;"></use> </clipPath> <g class="st25"> <g> <defs> <rect id="XMLID_26_" x="45.9" y="9.9" width="2.1" height="3.8"></rect> </defs> <clipPath id="XMLID_110_"> <use xlink:href="#XMLID_26_" style="overflow:visible;"></use> </clipPath> <g class="st26"> <defs> <path id="XMLID_27_" d="M46.6,12.8v-1.4h-0.4v-0.6h0.4V10h0.7v0.7h0.5v0.6h-0.5v1.2c0,0.2,0.1,0.3,0.2,0.3 c0.1,0,0.2,0,0.2-0.1l0.1,0.5c-0.1,0.1-0.3,0.2-0.6,0.2C46.8,13.5,46.6,13.2,46.6,12.8"></path> </defs> <clipPath id="XMLID_111_"> <use xlink:href="#XMLID_27_" style="overflow:visible;"></use> </clipPath> <g class="st27"> <defs> <rect id="XMLID_28_" x="45.9" y="9.9" width="2.1" height="3.8"></rect> </defs> <clipPath id="XMLID_112_"> <use xlink:href="#XMLID_28_" style="overflow:visible;"></use> </clipPath> <rect id="XMLID_29_" x="44.7" y="8.6" class="st28" width="4.7" height="6.4"></rect> </g> </g> </g> </g> </g> </g> </g> </svg> 