<?xml version="1.0" encoding="UTF-8"?> <!-- Generator: Adobe Illustrator 19.0.0, SVG Export Plug-In . SVG Version: 6.00 Build 0) --> <svg xmlns="http://www.w3.org/2000/svg" xmlns:xlink="http://www.w3.org/1999/xlink" id="Layer_1" x="0px" y="0px" viewBox="0 0 36.9 22.7" style="enable-background:new 0 0 36.9 22.7;" xml:space="preserve"> <style type="text/css"> .st0{clip-path:url(#XMLID_57_);} .st1{clip-path:url(#XMLID_58_);fill:#565656;} .st2{clip-path:url(#SVGID_2_);} .st3{clip-path:url(#XMLID_59_);fill:#565656;} .st4{clip-path:url(#XMLID_60_);} .st5{clip-path:url(#XMLID_61_);fill:#565656;} .st6{clip-path:url(#XMLID_62_);} .st7{clip-path:url(#XMLID_63_);fill:#565656;} .st8{clip-path:url(#SVGID_4_);} .st9{clip-path:url(#XMLID_64_);fill:#565656;} .st10{clip-path:url(#SVGID_6_);} .st11{clip-path:url(#XMLID_65_);fill:#565656;} .st12{clip-path:url(#XMLID_66_);} .st13{clip-path:url(#XMLID_67_);fill:#565656;} .st14{clip-path:url(#SVGID_8_);} .st15{clip-path:url(#XMLID_68_);fill:#565656;} </style> <g id="XMLID_1_"> <g> <defs> <polygon id="XMLID_46_" points="5.9,14.3 5.9,10.3 4.4,14.3 3.7,14.3 2.2,10.3 2.2,14.3 0.6,14.3 0.6,8.3 2.8,8.3 4,11.6 5.3,8.3 7.4,8.3 7.4,14.3 "></polygon> </defs> <clipPath id="XMLID_57_"> <use xlink:href="#XMLID_46_" style="overflow:visible;"></use> </clipPath> <g class="st0"> <defs> <rect id="XMLID_47_" x="-174" y="-1445.1" width="544.3" height="1701.4"></rect> </defs> <clipPath id="XMLID_58_"> <use xlink:href="#XMLID_47_" style="overflow:visible;"></use> </clipPath> <rect id="XMLID_48_" x="-0.8" y="6.9" class="st1" width="9.6" height="8.8"></rect> </g> </g> <g> <defs> <path id="SVGID_1_" d="M10.5,13.2v-0.4c-0.1-0.2-0.5-0.3-0.8-0.3C9.3,12.5,9,12.6,9,13c0,0.3,0.3,0.5,0.7,0.5 C10,13.5,10.3,13.4,10.5,13.2z M10.5,14.3v-0.4c-0.3,0.3-0.8,0.5-1.3,0.5c-0.7,0-1.5-0.5-1.5-1.4c0-1.1,0.8-1.4,1.5-1.4 c0.6,0,1.1,0.2,1.3,0.5v-0.4c0-0.4-0.3-0.6-0.9-0.6c-0.4,0-0.9,0.2-1.2,0.5l-0.5-1c0.6-0.5,1.3-0.7,2-0.7c1,0,2,0.4,2,1.7v2.7 L10.5,14.3L10.5,14.3z"></path> </defs> <clipPath id="SVGID_2_"> <use xlink:href="#SVGID_1_" style="overflow:visible;"></use> </clipPath> <g class="st2"> <defs> <rect id="XMLID_44_" x="-174" y="-1445.1" width="544.3" height="1701.4"></rect> </defs> <clipPath id="XMLID_59_"> <use xlink:href="#XMLID_44_" style="overflow:visible;"></use> </clipPath> <rect id="XMLID_45_" x="6.2" y="8.4" class="st3" width="7.1" height="7.4"></rect> </g> </g> <g> <defs> <path id="XMLID_39_" d="M12,13.7l0.6-1c0.3,0.3,1,0.6,1.5,0.6c0.4,0,0.6-0.1,0.6-0.3c0-0.5-2.5,0-2.5-1.7c0-0.8,0.7-1.4,1.9-1.4 c0.7,0,1.3,0.2,1.8,0.6l-0.5,1c-0.3-0.3-0.8-0.5-1.3-0.5c-0.3,0-0.5,0.1-0.5,0.3c0,0.5,2.5,0,2.5,1.8c0,0.8-0.7,1.4-2,1.4 C13.2,14.4,12.4,14.1,12,13.7"></path> </defs> <clipPath id="XMLID_60_"> <use xlink:href="#XMLID_39_" style="overflow:visible;"></use> </clipPath> <g class="st4"> <defs> <rect id="XMLID_40_" x="-174" y="-1445.1" width="544.3" height="1701.4"></rect> </defs> <clipPath id="XMLID_61_"> <use xlink:href="#XMLID_40_" style="overflow:visible;"></use> </clipPath> <rect id="XMLID_41_" x="10.5" y="8.4" class="st5" width="6.8" height="7.4"></rect> </g> </g> <g> <defs> <path id="XMLID_36_" d="M19.1,14.3v-2.5c0-0.5-0.3-0.7-0.7-0.7c-0.4,0-0.7,0.2-0.8,0.4v2.8h-1.4v-6h1.4v2.2 c0.3-0.3,0.8-0.6,1.5-0.6c1,0,1.4,0.6,1.4,1.4v3.1L19.1,14.3L19.1,14.3z"></path> </defs> <clipPath id="XMLID_62_"> <use xlink:href="#XMLID_36_" style="overflow:visible;"></use> </clipPath> <g class="st6"> <defs> <rect id="XMLID_37_" x="-174" y="-1445.1" width="544.3" height="1701.4"></rect> </defs> <clipPath id="XMLID_63_"> <use xlink:href="#XMLID_37_" style="overflow:visible;"></use> </clipPath> <rect id="XMLID_38_" x="14.7" y="6.9" class="st7" width="7.2" height="8.8"></rect> </g> </g> <g> <defs> <path id="SVGID_3_" d="M23.5,13.2v-0.4c-0.1-0.2-0.5-0.3-0.8-0.3c-0.4,0-0.7,0.2-0.7,0.5c0,0.3,0.3,0.5,0.7,0.5 C23,13.5,23.4,13.4,23.5,13.2z M23.5,14.3v-0.4c-0.3,0.3-0.8,0.5-1.3,0.5c-0.7,0-1.5-0.5-1.5-1.4c0-1.1,0.8-1.4,1.5-1.4 c0.6,0,1.1,0.2,1.3,0.5v-0.4c0-0.4-0.3-0.6-0.9-0.6c-0.4,0-0.9,0.2-1.2,0.5l-0.5-1c0.6-0.5,1.3-0.7,2-0.7c1,0,2,0.4,2,1.7v2.7 L23.5,14.3L23.5,14.3z"></path> </defs> <clipPath id="SVGID_4_"> <use xlink:href="#SVGID_3_" style="overflow:visible;"></use> </clipPath> <g class="st8"> <defs> <rect id="XMLID_31_" x="-174" y="-1445.1" width="544.3" height="1701.4"></rect> </defs> <clipPath id="XMLID_64_"> <use xlink:href="#XMLID_31_" style="overflow:visible;"></use> </clipPath> <rect id="XMLID_32_" x="19.2" y="8.4" class="st9" width="7.1" height="7.4"></rect> </g> </g> <g> <defs> <path id="SVGID_5_" d="M27.6,13.2c0.5,0,1-0.4,1-1.1c0-0.6-0.4-1.1-1-1.1c-0.3,0-0.7,0.2-0.8,0.4v1.3 C26.9,13,27.3,13.2,27.6,13.2z M25.4,14.3v-6h1.4v2.2c0.3-0.4,0.8-0.6,1.3-0.6c1.1,0,1.9,0.8,1.9,2.3c0,1.5-0.8,2.3-1.9,2.3 c-0.5,0-0.9-0.2-1.3-0.6v0.5H25.4z"></path> </defs> <clipPath id="SVGID_6_"> <use xlink:href="#SVGID_5_" style="overflow:visible;"></use> </clipPath> <g class="st10"> <defs> <rect id="XMLID_27_" x="-174" y="-1445.1" width="544.3" height="1701.4"></rect> </defs> <clipPath id="XMLID_65_"> <use xlink:href="#XMLID_27_" style="overflow:visible;"></use> </clipPath> <rect id="XMLID_28_" x="23.9" y="6.9" class="st11" width="7.4" height="8.9"></rect> </g> </g> <g> <defs> <rect id="XMLID_22_" x="30.1" y="8.3" width="1.4" height="6"></rect> </defs> <clipPath id="XMLID_66_"> <use xlink:href="#XMLID_22_" style="overflow:visible;"></use> </clipPath> <g class="st12"> <defs> <rect id="XMLID_23_" x="-174" y="-1445.1" width="544.3" height="1701.4"></rect> </defs> <clipPath id="XMLID_67_"> <use xlink:href="#XMLID_23_" style="overflow:visible;"></use> </clipPath> <rect id="XMLID_24_" x="28.7" y="6.9" class="st13" width="4.2" height="8.8"></rect> </g> </g> <g> <defs> <path id="SVGID_7_" d="M34,11c-0.6,0-0.8,0.4-0.9,0.7h1.8C34.9,11.3,34.7,11,34,11 M31.7,12.1c0-1.3,0.9-2.3,2.3-2.3 c1.3,0,2.2,0.9,2.2,2.4v0.3h-3.1c0.1,0.4,0.5,0.7,1.1,0.7c0.3,0,0.8-0.1,1.1-0.4l0.6,0.9c-0.4,0.4-1.2,0.6-1.8,0.6 C32.7,14.4,31.7,13.5,31.7,12.1"></path> </defs> <clipPath id="SVGID_8_"> <use xlink:href="#SVGID_7_" style="overflow:visible;"></use> </clipPath> <g class="st14"> <defs> <rect id="XMLID_20_" x="-174" y="-1445.1" width="544.3" height="1701.4"></rect> </defs> <clipPath id="XMLID_68_"> <use xlink:href="#XMLID_20_" style="overflow:visible;"></use> </clipPath> <rect id="XMLID_21_" x="30.3" y="8.4" class="st15" width="7.4" height="7.4"></rect> </g> </g> </g> </svg> 