<?xml version="1.0" encoding="UTF-8"?> <!-- Generator: Adobe Illustrator 19.0.0, SVG Export Plug-In . SVG Version: 6.00 Build 0) --> <svg xmlns="http://www.w3.org/2000/svg" xmlns:xlink="http://www.w3.org/1999/xlink" id="Layer_1" x="0px" y="0px" viewBox="0 0 53.9 22.7" style="enable-background:new 0 0 53.9 22.7;" xml:space="preserve"> <style type="text/css"> .st0{clip-path:url(#XMLID_37_);} .st1{clip-path:url(#XMLID_38_);fill:#182414;} .st2{clip-path:url(#XMLID_39_);} .st3{clip-path:url(#XMLID_40_);fill:#5DBD6C;} </style> <g id="XMLID_1_"> <g id="XMLID_24_"> <defs> <path id="XMLID_25_" d="M16.3,10.4l1.1-1.6c0.2-0.3,0.5-0.4,0.8-0.4c0.3,0,0.5,0.1,0.7,0.3c0.2,0.2,0.3,0.4,0.3,0.7 c0,0.2-0.1,0.4-0.2,0.5l-1,1.4l1.2,1.5c0.1,0.1,0.2,0.3,0.2,0.5c0,0.3-0.1,0.5-0.3,0.7c-0.2,0.2-0.4,0.3-0.7,0.3 c-0.3,0-0.5-0.1-0.7-0.3l-1.5-1.8v1c0,0.3,0,0.5-0.1,0.7c-0.2,0.3-0.5,0.4-0.8,0.4c-0.3,0-0.6-0.1-0.7-0.3 c-0.2-0.2-0.2-0.5-0.2-0.8V9.5c0-0.3,0.1-0.6,0.2-0.8c0.2-0.2,0.4-0.3,0.7-0.3c0.3,0,0.5,0.1,0.7,0.3c0.1,0.1,0.2,0.2,0.2,0.4 c0,0.1,0,0.2,0,0.4V10.4z M11.3,8.3c0.7,0,1.4,0.2,2,0.7c0.5,0.4,0.7,0.8,0.7,1.2c0,0.3-0.1,0.6-0.4,0.8 c-0.2,0.1-0.3,0.2-0.5,0.2c-0.2,0-0.3,0-0.5-0.1c-0.1,0-0.2-0.2-0.4-0.4c-0.2-0.2-0.5-0.4-0.8-0.4c-0.3,0-0.6,0.1-0.8,0.3 c-0.2,0.2-0.3,0.5-0.3,0.8c0,0.3,0.1,0.6,0.3,0.8s0.5,0.3,0.8,0.3c0.3,0,0.5-0.1,0.7-0.3c0.1-0.1,0.3-0.3,0.4-0.4 c0.1-0.1,0.3-0.2,0.6-0.2c0.3,0,0.5,0.1,0.7,0.3c0.2,0.2,0.3,0.4,0.3,0.7c0,0.4-0.2,0.7-0.6,1.1c-0.6,0.5-1.3,0.8-2.1,0.8 c-0.5,0-0.9-0.1-1.4-0.3c-0.5-0.3-1-0.6-1.3-1.1c-0.3-0.5-0.5-1-0.5-1.6c0-0.9,0.3-1.6,1-2.3C9.8,8.5,10.5,8.3,11.3,8.3z M7.8,9.6v3.6c0,0.3-0.1,0.6-0.2,0.8c-0.2,0.2-0.4,0.3-0.7,0.3c-0.3,0-0.5-0.1-0.7-0.3c-0.2-0.2-0.2-0.4-0.2-0.8V9.6 c0-0.4,0.1-0.7,0.2-0.9c0.2-0.2,0.4-0.3,0.7-0.3s0.5,0.1,0.7,0.3C7.7,8.9,7.8,9.2,7.8,9.6z M2.4,10.4l1.1-1.6 C3.7,8.5,4,8.4,4.3,8.4c0.3,0,0.5,0.1,0.7,0.3c0.2,0.2,0.3,0.4,0.3,0.7c0,0.2-0.1,0.4-0.2,0.5l-1,1.4l1.2,1.5 c0.1,0.1,0.2,0.3,0.2,0.5c0,0.3-0.1,0.5-0.3,0.7s-0.4,0.3-0.7,0.3c-0.3,0-0.5-0.1-0.7-0.3l-1.5-1.8v1c0,0.3,0,0.5-0.1,0.7 c-0.2,0.3-0.5,0.4-0.8,0.4c-0.3,0-0.6-0.1-0.7-0.3c-0.2-0.2-0.2-0.5-0.2-0.8V9.5c0-0.3,0.1-0.6,0.2-0.8s0.4-0.3,0.7-0.3 c0.3,0,0.5,0.1,0.7,0.3C2.3,8.8,2.3,8.9,2.4,9c0,0.1,0,0.2,0,0.4L2.4,10.4L2.4,10.4z"></path> </defs> <clipPath id="XMLID_37_"> <use xlink:href="#XMLID_25_" style="overflow:visible;"></use> </clipPath> <g id="XMLID_30_" class="st0"> <defs> <rect id="XMLID_31_" x="-102.7" y="-1445.6" width="544.3" height="1701.4"></rect> </defs> <clipPath id="XMLID_38_"> <use xlink:href="#XMLID_31_" style="overflow:visible;"></use> </clipPath> <rect id="XMLID_32_" x="-1" y="6.8" class="st1" width="21.7" height="9"></rect> </g> </g> <g id="XMLID_12_"> <defs> <path id="XMLID_13_" d="M52.8,12l0.5,0.7c0.1,0.2,0.2,0.4,0.2,0.6c0,0.3-0.1,0.5-0.3,0.7c-0.2,0.2-0.4,0.3-0.7,0.3 c-0.4,0-0.6-0.1-0.8-0.4l-0.8-1.3v0.8c0,0.3-0.1,0.5-0.3,0.7c-0.2,0.2-0.4,0.3-0.7,0.3c-0.3,0-0.6-0.1-0.8-0.4 c-0.2-0.2-0.2-0.5-0.2-0.8V9.5c0-0.7,0.4-1.1,1.2-1.1h1.2c0.4,0,0.8,0.1,1.1,0.4C52.8,9,53,9.3,53.2,9.7c0.1,0.3,0.2,0.6,0.2,0.9 C53.4,11.1,53.2,11.5,52.8,12z M46.5,12.5h0.9c0.4,0,0.6,0.1,0.8,0.2c0.2,0.2,0.3,0.4,0.3,0.7s-0.1,0.5-0.3,0.7 c-0.2,0.1-0.4,0.2-0.8,0.2h-1.5c-0.4,0-0.6,0-0.7-0.1c-0.3-0.1-0.4-0.3-0.5-0.5c-0.1-0.2-0.1-0.4-0.1-0.8V9.7c0-0.3,0-0.4,0-0.5 c0-0.2,0.1-0.3,0.2-0.5c0.1-0.1,0.3-0.2,0.5-0.3c0.1,0,0.3,0,0.6,0h1.2c0.3,0,0.5,0,0.6,0c0.2,0,0.4,0.1,0.5,0.2 c0.2,0.2,0.4,0.4,0.4,0.7c0,0.3-0.1,0.5-0.3,0.7c-0.2,0.1-0.4,0.2-0.7,0.2h-1v0.4h0.8c0.2,0,0.4,0.1,0.6,0.2 c0.2,0.1,0.2,0.3,0.2,0.5c0,0.5-0.3,0.7-0.8,0.7h-0.7L46.5,12.5L46.5,12.5z M40.8,10.2h-0.5c-0.3,0-0.5-0.1-0.7-0.2 c-0.2-0.2-0.3-0.4-0.3-0.7c0-0.2,0-0.3,0.1-0.5c0.1-0.2,0.2-0.3,0.4-0.3c0.1-0.1,0.5-0.1,1.1-0.1h1.9c0.5,0,0.8,0,0.9,0.1 c0.2,0.1,0.3,0.2,0.4,0.3c0.1,0.2,0.1,0.3,0.1,0.5c0,0.3-0.1,0.5-0.3,0.7c-0.1,0.1-0.4,0.2-0.7,0.2h-0.4v2.9 c0,0.3-0.1,0.6-0.2,0.7c-0.2,0.3-0.5,0.4-0.8,0.4c-0.4,0-0.6-0.1-0.8-0.4c-0.1-0.2-0.2-0.4-0.2-0.8V10.2z M38.5,12l0.5,0.7 c0.1,0.2,0.2,0.4,0.2,0.6c0,0.3-0.1,0.5-0.3,0.7c-0.2,0.2-0.4,0.3-0.7,0.3c-0.4,0-0.6-0.1-0.8-0.4l-0.8-1.3v0.8 c0,0.3-0.1,0.5-0.3,0.7c-0.2,0.2-0.4,0.3-0.7,0.3c-0.3,0-0.6-0.1-0.8-0.4c-0.2-0.2-0.2-0.5-0.2-0.8V9.5c0-0.7,0.4-1.1,1.2-1.1 h1.2c0.4,0,0.8,0.1,1.1,0.4C38.6,9,38.8,9.3,39,9.7c0.1,0.3,0.2,0.6,0.2,0.9C39.1,11.1,38.9,11.5,38.5,12z M30.5,13.5 c-0.1,0.2-0.2,0.4-0.3,0.5c-0.2,0.2-0.4,0.3-0.7,0.3c-0.3,0-0.6-0.1-0.8-0.4c-0.1-0.2-0.2-0.4-0.2-0.6c0-0.2,0-0.3,0.1-0.5 l1.8-3.9c0.2-0.4,0.5-0.6,0.9-0.6c0.4,0,0.7,0.2,0.9,0.6l1.9,3.9c0.1,0.2,0.1,0.3,0.1,0.5c0,0.2-0.1,0.4-0.2,0.6 c-0.2,0.2-0.4,0.4-0.7,0.4c-0.2,0-0.5-0.1-0.6-0.2c-0.1-0.1-0.2-0.3-0.4-0.6L30.5,13.5L30.5,13.5z M25.8,10.2h-0.5 c-0.3,0-0.5-0.1-0.7-0.2c-0.2-0.2-0.3-0.4-0.3-0.7c0-0.2,0-0.3,0.1-0.5c0.1-0.2,0.2-0.3,0.4-0.3c0.1-0.1,0.5-0.1,1.1-0.1h1.9 c0.5,0,0.8,0,0.9,0.1c0.2,0.1,0.3,0.2,0.4,0.3c0.1,0.2,0.1,0.3,0.1,0.5c0,0.3-0.1,0.5-0.3,0.7c-0.1,0.1-0.4,0.2-0.7,0.2h-0.4v2.9 c0,0.3-0.1,0.6-0.2,0.7c-0.2,0.3-0.5,0.4-0.8,0.4c-0.4,0-0.6-0.1-0.8-0.4c-0.1-0.2-0.2-0.4-0.2-0.8V10.2z M20.6,12.1 c0.2,0,0.4,0.1,0.7,0.3c0.3,0.2,0.5,0.4,0.6,0.4c0.2,0,0.2-0.1,0.2-0.3c0-0.1,0-0.2-0.1-0.2c-0.1,0-0.3-0.1-0.9-0.3 c-0.9-0.3-1.3-0.9-1.3-1.7c0-0.6,0.2-1.1,0.7-1.5c0.4-0.3,0.9-0.5,1.5-0.5c0.5,0,1,0.1,1.3,0.4c0.4,0.2,0.6,0.6,0.6,0.9 c0,0.2-0.1,0.4-0.2,0.6c-0.1,0.2-0.3,0.2-0.6,0.2c-0.2,0-0.5-0.1-0.8-0.3c-0.2-0.1-0.3-0.2-0.4-0.2c-0.2,0-0.2,0.1-0.2,0.2 s0.2,0.3,0.6,0.4c0.5,0.2,1,0.4,1.2,0.6c0.4,0.3,0.6,0.8,0.6,1.4c0,0.6-0.2,1.1-0.7,1.5c-0.4,0.3-0.9,0.5-1.6,0.5 c-0.7,0-1.2-0.2-1.6-0.5c-0.3-0.3-0.5-0.6-0.5-1c0-0.2,0.1-0.5,0.2-0.6C20.1,12.2,20.3,12.1,20.6,12.1z"></path> </defs> <clipPath id="XMLID_39_"> <use xlink:href="#XMLID_13_" style="overflow:visible;"></use> </clipPath> <g id="XMLID_21_" class="st2"> <defs> <rect id="XMLID_22_" x="-102.7" y="-1445.6" width="544.3" height="1701.4"></rect> </defs> <clipPath id="XMLID_40_"> <use xlink:href="#XMLID_22_" style="overflow:visible;"></use> </clipPath> <rect id="XMLID_23_" x="18.3" y="6.8" class="st3" width="36.5" height="9"></rect> </g> </g> </g> </svg> 