<?xml version="1.0" encoding="utf-8"?>
<!-- Generator: Adobe Illustrator 19.0.0, SVG Export Plug-In . SVG Version: 6.00 Build 0)  -->
<svg version="1.1" id="Layer_1" xmlns="http://www.w3.org/2000/svg" xmlns:xlink="http://www.w3.org/1999/xlink" x="0px" y="0px"
	 viewBox="0 0 85 85" style="enable-background:new 0 0 85 85;" xml:space="preserve">
<style type="text/css">
	.st0{opacity:0.5;enable-background:new    ;}
	.st1{clip-path:url(#XMLID_2_);}
	.st2{clip-path:url(#XMLID_7_);}
	.st3{clip-path:url(#XMLID_8_);fill:#010101;}
</style>
<g id="XMLID_9_" class="st0">
	<g id="XMLID_10_">
		<defs>
			<rect id="XMLID_3_" x="9.4" y="3.4" width="66.2" height="78.2"/>
		</defs>
		<clipPath id="XMLID_2_">
			<use xlink:href="#XMLID_3_"  style="overflow:visible;"/>
		</clipPath>
		<g id="XMLID_12_" class="st1">
			<defs>
				<path id="XMLID_4_" d="M73.9,14.2C69,37.6,52.3,56.4,30.5,64.2c3.7,1.6,7.2,3.5,10.7,5.5c0.4,0.2,0,4.7,0,5.3
					c0,0.6-0.4,4.9,0,5.3c-9.3-5.5-19.3-9.6-30-11.9c-0.8-0.2,0.8-10.2,0-10.4h0.2c0-0.4,0.2-0.8,0.2-0.8c7.2-5.9,14-12.3,19.8-19.4
					c-0.6,0.6,0,4.3,0,5.3s0.6,4.3,0,5.3c-2.1,2.7-4.5,5.3-7,7.6c24.5-6.6,43.8-26.6,49-52C73.1,7.1,74.6,10.9,73.9,14.2L73.9,14.2z
					"/>
			</defs>
			<clipPath id="XMLID_7_">
				<use xlink:href="#XMLID_4_"  style="overflow:visible;"/>
			</clipPath>
			<g id="XMLID_14_" class="st2">
				<defs>
					<rect id="XMLID_5_" x="9.4" y="3.4" width="66.2" height="78.2"/>
				</defs>
				<clipPath id="XMLID_8_">
					<use xlink:href="#XMLID_5_"  style="overflow:visible;"/>
				</clipPath>
				<rect id="XMLID_6_" x="-4.1" y="-11" class="st3" width="93.2" height="106.3"/>
			</g>
		</g>
	</g>
</g>
</svg>
