<?xml version="1.0" encoding="UTF-8"?> <!-- Generator: Adobe Illustrator 19.0.0, SVG Export Plug-In . SVG Version: 6.00 Build 0) --> <svg xmlns="http://www.w3.org/2000/svg" xmlns:xlink="http://www.w3.org/1999/xlink" id="Layer_1" x="0px" y="0px" viewBox="0 0 85 85" style="enable-background:new 0 0 85 85;" xml:space="preserve"> <style type="text/css"> .st0{clip-path:url(#XMLID_27_);} .st1{clip-path:url(#XMLID_28_);fill:#010101;} .st2{clip-path:url(#XMLID_29_);} .st3{clip-path:url(#XMLID_30_);fill:#010101;} .st4{clip-path:url(#XMLID_31_);} .st5{clip-path:url(#XMLID_32_);fill:#010101;} .st6{clip-path:url(#XMLID_33_);} .st7{clip-path:url(#XMLID_34_);fill:#010101;} .st8{clip-path:url(#XMLID_35_);} .st9{clip-path:url(#XMLID_36_);fill:#010101;} </style> <g id="XMLID_22_"> <defs> <path id="XMLID_23_" d="M15.7,73.7c0,2.4-3.6,2.4-3.6,0C12.1,71.3,15.7,71.3,15.7,73.7"></path> </defs> <clipPath id="XMLID_27_"> <use xlink:href="#XMLID_23_" style="overflow:visible;"></use> </clipPath> <g id="XMLID_24_" class="st0"> <defs> <rect id="XMLID_25_" x="-901.4" y="-2942.4" width="5442.5" height="17013.5"></rect> </defs> <clipPath id="XMLID_28_"> <use xlink:href="#XMLID_25_" style="overflow:visible;"></use> </clipPath> <rect id="XMLID_26_" x="-2.1" y="57.7" class="st1" width="31.9" height="31.9"></rect> </g> </g> <g id="XMLID_17_"> <defs> <path id="XMLID_18_" d="M56.8,73.7c0,2.4-3.6,2.4-3.6,0C53.2,71.3,56.8,71.3,56.8,73.7"></path> </defs> <clipPath id="XMLID_29_"> <use xlink:href="#XMLID_18_" style="overflow:visible;"></use> </clipPath> <g id="XMLID_19_" class="st2"> <defs> <rect id="XMLID_20_" x="-901.4" y="-2942.4" width="5442.5" height="17013.5"></rect> </defs> <clipPath id="XMLID_30_"> <use xlink:href="#XMLID_20_" style="overflow:visible;"></use> </clipPath> <rect id="XMLID_21_" x="39.1" y="57.7" class="st3" width="31.9" height="31.9"></rect> </g> </g> <g id="XMLID_12_"> <defs> <path id="XMLID_13_" d="M58.8,49.1c-0.4,0.9-0.1,2,0.8,2.4c0.9,0.4,2,0.1,2.4-0.8c1.3-2.6,2-5.4,2-8.4v-3.6 c0-12.3-10-22.4-22.4-22.4s-22.4,10-22.4,22.4v3.6c0,14.3,11.6,26,26,26c1.6,0,3.2-0.2,4.8-0.5c1-0.2,1.6-1.1,1.4-2.1 c-0.2-1-1.1-1.6-2.1-1.4c-1.4,0.3-2.8,0.4-4.1,0.4c-12.3,0-22.4-10-22.4-22.4v-3.6c0-10.4,8.4-18.8,18.8-18.8 c10.4,0,18.8,8.4,18.8,18.8v3.6C60.4,44.7,59.9,47,58.8,49.1L58.8,49.1z"></path> </defs> <clipPath id="XMLID_31_"> <use xlink:href="#XMLID_13_" style="overflow:visible;"></use> </clipPath> <g id="XMLID_14_" class="st4"> <defs> <rect id="XMLID_15_" x="-901.4" y="-2942.4" width="5442.5" height="17013.5"></rect> </defs> <clipPath id="XMLID_32_"> <use xlink:href="#XMLID_15_" style="overflow:visible;"></use> </clipPath> <rect id="XMLID_16_" x="5.1" y="2.2" class="st5" width="73.1" height="80.3"></rect> </g> </g> <g id="XMLID_7_"> <defs> <path id="XMLID_8_" d="M13.9,70.1c1,0,1.8-0.8,1.8-1.8V38.8c0-14.3,11.6-26,26-26s26,11.6,26,26v3.6c0,6.8-3,13.1-8.3,17.4 c-0.8,0.6-0.9,1.8-0.3,2.5c0.6,0.8,1.8,0.9,2.5,0.3c6.1-5,9.6-12.3,9.6-20.2v-3.6c0-16.3-13.2-29.5-29.5-29.5 c-16.3,0-29.5,13.2-29.5,29.5v29.5C12.1,69.3,12.9,70.1,13.9,70.1L13.9,70.1z"></path> </defs> <clipPath id="XMLID_33_"> <use xlink:href="#XMLID_8_" style="overflow:visible;"></use> </clipPath> <g id="XMLID_9_" class="st6"> <defs> <rect id="XMLID_10_" x="-901.4" y="-2942.4" width="5442.5" height="17013.5"></rect> </defs> <clipPath id="XMLID_34_"> <use xlink:href="#XMLID_10_" style="overflow:visible;"></use> </clipPath> <rect id="XMLID_11_" x="-2.1" y="-4.9" class="st7" width="87.4" height="89.2"></rect> </g> </g> <g id="XMLID_2_"> <defs> <path id="XMLID_3_" d="M56.8,38.8c0-8.4-6.8-15.2-15.2-15.2s-15.2,6.8-15.2,15.2v3.6c0,10.4,8.4,18.8,18.8,18.8 c1.7,0,3.3-0.2,4.9-0.7c1-0.3,1.5-1.2,1.3-2.2c-0.3-1-1.2-1.5-2.2-1.3c-1.3,0.4-2.7,0.5-4,0.5c-8.4,0-15.2-6.8-15.2-15.2v-3.6 c0-6.4,5.2-11.6,11.6-11.6s11.6,5.2,11.6,11.6v29.5c0,1,0.8,1.8,1.8,1.8c1,0,1.8-0.8,1.8-1.8L56.8,38.8z"></path> </defs> <clipPath id="XMLID_35_"> <use xlink:href="#XMLID_3_" style="overflow:visible;"></use> </clipPath> <g id="XMLID_4_" class="st8"> <defs> <rect id="XMLID_5_" x="-901.4" y="-2942.4" width="5442.5" height="17013.5"></rect> </defs> <clipPath id="XMLID_36_"> <use xlink:href="#XMLID_5_" style="overflow:visible;"></use> </clipPath> <rect id="XMLID_6_" x="12.2" y="9.4" class="st9" width="58.8" height="74.9"></rect> </g> </g> </svg> 