<?xml version="1.0" encoding="UTF-8"?> <!-- Generator: Adobe Illustrator 19.0.0, SVG Export Plug-In . SVG Version: 6.00 Build 0) --> <svg xmlns="http://www.w3.org/2000/svg" xmlns:xlink="http://www.w3.org/1999/xlink" id="Layer_1" x="0px" y="0px" viewBox="0 0 85 85" style="enable-background:new 0 0 85 85;" xml:space="preserve"> <style type="text/css"> .st0{clip-path:url(#XMLID_12_);} .st1{clip-path:url(#XMLID_13_);fill:#010101;} </style> <g id="XMLID_1_"> <defs> <path id="XMLID_3_" d="M42.5,69c-0.8,0-1.5,0.7-1.5,1.5c0,0.8,0.7,1.5,1.5,1.5c0.8,0,1.5-0.7,1.5-1.5C44,69.7,43.3,69,42.5,69z M20,67.5h45V72c0,0.9-0.6,1.5-1.5,1.5h-42c-0.9,0-1.5-0.6-1.5-1.5V67.5z M20,17.6h45v46.9H20V17.6z M21.5,11.5h42 c0.9,0,1.5,0.6,1.5,1.5v1.5H20V13C20,12.2,20.7,11.5,21.5,11.5z M21.5,8.5c-2.5,0-4.5,2-4.5,4.5v59c0,2.5,2,4.5,4.5,4.5h42 c2.5,0,4.5-2,4.5-4.5V13c0-2.5-2-4.5-4.5-4.5H21.5z"></path> </defs> <clipPath id="XMLID_12_"> <use xlink:href="#XMLID_3_" style="overflow:visible;"></use> </clipPath> <g id="XMLID_2_" class="st0"> <defs> <rect id="XMLID_7_" x="-1536.4" y="-2942.4" width="5442.5" height="17013.5"></rect> </defs> <clipPath id="XMLID_13_"> <use xlink:href="#XMLID_7_" style="overflow:visible;"></use> </clipPath> <rect id="XMLID_8_" x="2.8" y="-5.7" class="st1" width="79.4" height="96.4"></rect> </g> </g> </svg> 