<?xml version="1.0" encoding="UTF-8"?> <!-- Generator: Adobe Illustrator 19.0.0, SVG Export Plug-In . SVG Version: 6.00 Build 0) --> <svg xmlns="http://www.w3.org/2000/svg" xmlns:xlink="http://www.w3.org/1999/xlink" id="Layer_1" x="0px" y="0px" viewBox="0 0 85 85" style="enable-background:new 0 0 85 85;" xml:space="preserve"> <style type="text/css"> .st0{clip-path:url(#XMLID_19_);} .st1{clip-path:url(#XMLID_20_);fill:#010101;} .st2{clip-path:url(#XMLID_21_);} .st3{clip-path:url(#XMLID_22_);fill:#010101;} </style> <g id="XMLID_1_"> <defs> <path id="XMLID_3_" d="M15.8,54.4v4.3c-0.9,1.2-1.4,2.4-1.4,3.7c0,6.6,12.9,12.2,28.2,12.2c0.5,0,1,0,1.6,0l-1.8-3.5 c-0.4-0.8-0.1-1.7,0.7-2.1c0.8-0.4,1.7-0.1,2.1,0.7l2.9,5.6c0,0,0,0,0,0c0,0,0,0.1,0.1,0.1c0,0,0,0.1,0,0.1v0c0,0,0,0.1,0,0.1 c0,0,0,0.1,0,0.1v0c0,0,0,0,0,0c0,0,0,0.1,0,0.1v0c0,0,0,0.1,0,0.1c0,0,0,0,0,0c0,0.1,0,0.1,0,0.2c0,0,0,0.1,0,0.1c0,0,0,0,0,0 c0,0.1,0,0.1-0.1,0.2c0,0,0,0.1,0,0.1l-2.9,5.6c-0.3,0.5-0.8,0.8-1.4,0.8c-0.2,0-0.5-0.1-0.7-0.2c-0.8-0.4-1.1-1.3-0.7-2.1 l1.7-3.3c-0.5,0-1,0-1.5,0l0,0c-17.6,0-31.3-6.7-31.3-15.3C11.3,59.5,12.9,56.7,15.8,54.4z M58.8,75.5c0.1,0,0.3,0,0.4-0.1 C68.5,72.7,74,67.8,74,62.4c0-3.2-1.9-6.1-5.1-8.5c0,0-0.1-0.1-0.1-0.1c-0.1-0.1,0,4,0,4c0,0,0.1,0.1,0.1,0.1c1.3,1.4,2,2.9,2,4.5 c0,3.9-4.8,7.8-12.6,10.1c-0.8,0.2-1.3,1.1-1.1,1.9C57.5,75.1,58.1,75.5,58.8,75.5z"></path> </defs> <clipPath id="XMLID_19_"> <use xlink:href="#XMLID_3_" style="overflow:visible;"></use> </clipPath> <g id="XMLID_2_" class="st0"> <defs> <rect id="XMLID_11_" x="-2171.3" y="-2945.2" width="5442.5" height="17013.5"></rect> </defs> <clipPath id="XMLID_20_"> <use xlink:href="#XMLID_11_" style="overflow:visible;"></use> </clipPath> <rect id="XMLID_12_" x="-2.8" y="39.7" class="st1" width="91" height="57.7"></rect> </g> </g> <g id="XMLID_4_"> <defs> <path id="XMLID_6_" d="M42.4,58.7c-0.7,0-1.3,0.6-1.3,1.3c0,0.7,0.6,1.3,1.3,1.3c0.7,0,1.3-0.6,1.3-1.3 C43.7,59.3,43.1,58.7,42.4,58.7z M22.5,57.4h39.8v4c0,0.8-0.6,1.3-1.3,1.3H23.8c-0.8,0-1.3-0.6-1.3-1.3V57.4z M22.5,13.6h39.8 v41.1H22.5V13.6z M23.8,8.3H61c0.8,0,1.3,0.6,1.3,1.3V11H22.5V9.6C22.5,8.9,23.1,8.3,23.8,8.3z M23.8,5.7c-2.2,0-4,1.8-4,4v51.7 c0,2.2,1.8,4,4,4H61c2.2,0,4-1.8,4-4V9.6c0-2.2-1.8-4-4-4H23.8z"></path> </defs> <clipPath id="XMLID_21_"> <use xlink:href="#XMLID_6_" style="overflow:visible;"></use> </clipPath> <g id="XMLID_5_" class="st2"> <defs> <rect id="XMLID_7_" x="-2171.3" y="-2945.2" width="5442.5" height="17013.5"></rect> </defs> <clipPath id="XMLID_22_"> <use xlink:href="#XMLID_7_" style="overflow:visible;"></use> </clipPath> <rect id="XMLID_8_" x="5.7" y="-8.5" class="st3" width="73.5" height="88"></rect> </g> </g> </svg> 