<?xml version="1.0" encoding="UTF-8"?> <!-- Generator: Adobe Illustrator 19.0.0, SVG Export Plug-In . SVG Version: 6.00 Build 0) --> <svg xmlns="http://www.w3.org/2000/svg" xmlns:xlink="http://www.w3.org/1999/xlink" id="Layer_1" x="0px" y="0px" viewBox="0 0 85 85" style="enable-background:new 0 0 85 85;" xml:space="preserve"> <style type="text/css"> .st0{clip-path:url(#XMLID_29_);} .st1{clip-path:url(#XMLID_30_);fill:#010101;} .st2{clip-path:url(#XMLID_31_);} .st3{clip-path:url(#XMLID_32_);fill:#010101;} .st4{clip-path:url(#XMLID_33_);} .st5{clip-path:url(#XMLID_34_);fill:#010101;} </style> <g id="XMLID_1_"> <defs> <path id="XMLID_3_" d="M19.1,41.1l-1.6-1.6c-0.6-0.6-1.5-0.6-2.1,0c-0.9,0.9-2.3,2.3-3.2,3.2c-0.6,0.6-0.6,1.5,0,2.1l1.6,1.6 L19.1,41.1z M41.5,63.4L21.3,43.2l-5.3,5.3l20.2,20.2L41.5,63.4z M43.1,66l-4.3,4.3l5.8,1.6L43.1,66z M34,70.8L12.8,49.6 c0,0-1.3-1.3-2.7-2.7c-0.8-0.8-1.3-2-1.3-3.2c0-1.2,0.5-2.3,1.3-3.2c1-1,2.2-2.2,3.2-3.2c0.8-0.8,2-1.3,3.2-1.3 c1.2,0,2.3,0.5,3.2,1.3l25.2,25.2c0.2,0.2,0.3,0.4,0.4,0.7c0.4,1.5,2,7,2.9,10.3c0.1,0.5,0,1.1-0.4,1.5c-0.4,0.4-0.9,0.5-1.5,0.4 c-3.3-0.9-8.8-2.5-10.3-2.9c-0.2-0.1-0.5-0.2-0.7-0.4C34.9,71.7,34,70.8,34,70.8L34,70.8z"></path> </defs> <clipPath id="XMLID_29_"> <use xlink:href="#XMLID_3_" style="overflow:visible;"></use> </clipPath> <g id="XMLID_2_" class="st0"> <defs> <rect id="XMLID_18_" x="-2803.5" y="-2942.4" width="5442.5" height="17013.5"></rect> </defs> <clipPath id="XMLID_30_"> <use xlink:href="#XMLID_18_" style="overflow:visible;"></use> </clipPath> <rect id="XMLID_19_" x="-5.4" y="21.8" class="st1" width="67.8" height="67.8"></rect> </g> </g> <g id="XMLID_4_"> <defs> <path id="XMLID_6_" d="M32.7,27.4l-1.6-1.6c-0.6-0.6-1.5-0.6-2.1,0c-0.9,0.9-2.3,2.3-3.2,3.2c-0.6,0.6-0.6,1.5,0,2.1l1.6,1.6 L32.7,27.4z M55.1,49.8L34.9,29.6l-5.3,5.3l20.2,20.2L55.1,49.8z M56.7,52.4l-4.3,4.3l5.8,1.6L56.7,52.4z M47.6,57.2L26.4,36 c0,0-1.3-1.3-2.7-2.7c-0.8-0.8-1.3-2-1.3-3.2c0-1.2,0.5-2.3,1.3-3.2c1-1,2.2-2.2,3.2-3.2c0.8-0.8,2-1.3,3.2-1.3 c1.2,0,2.3,0.5,3.2,1.3L58.5,49c0.2,0.2,0.3,0.4,0.4,0.7c0.4,1.5,2,7,2.9,10.3c0.1,0.5,0,1.1-0.4,1.5c-0.4,0.4-0.9,0.5-1.5,0.4 c-3.3-0.9-8.8-2.5-10.3-2.9c-0.2-0.1-0.5-0.2-0.7-0.4C48.5,58.1,47.6,57.2,47.6,57.2L47.6,57.2z"></path> </defs> <clipPath id="XMLID_31_"> <use xlink:href="#XMLID_6_" style="overflow:visible;"></use> </clipPath> <g id="XMLID_5_" class="st2"> <defs> <rect id="XMLID_12_" x="-2803.5" y="-2942.4" width="5442.5" height="17013.5"></rect> </defs> <clipPath id="XMLID_32_"> <use xlink:href="#XMLID_12_" style="overflow:visible;"></use> </clipPath> <rect id="XMLID_13_" x="8.2" y="8.2" class="st3" width="67.8" height="67.8"></rect> </g> </g> <g id="XMLID_7_"> <defs> <path id="XMLID_23_" d="M46.3,13.8l-1.6-1.6c-0.6-0.6-1.5-0.6-2.1,0c-0.9,0.9-2.3,2.3-3.2,3.2c-0.6,0.6-0.6,1.5,0,2.1l1.6,1.6 L46.3,13.8z M68.7,36.2L48.5,16l-5.3,5.3l20.2,20.2L68.7,36.2z M70.3,38.8L66,43.1l5.8,1.6L70.3,38.8z M61.2,43.6L40,22.3 c0,0-1.3-1.3-2.7-2.7c-0.8-0.8-1.3-2-1.3-3.2c0-1.2,0.5-2.3,1.3-3.2c1-1,2.2-2.2,3.2-3.2c0.8-0.8,2-1.3,3.2-1.3 c1.2,0,2.3,0.5,3.2,1.3l25.2,25.2c0.2,0.2,0.3,0.4,0.4,0.7c0.4,1.5,2,7,2.9,10.3c0.1,0.5,0,1.1-0.4,1.5c-0.4,0.4-0.9,0.5-1.5,0.4 c-3.3-0.9-8.8-2.5-10.3-2.9c-0.2-0.1-0.5-0.2-0.7-0.4C62.1,44.5,61.2,43.6,61.2,43.6L61.2,43.6z"></path> </defs> <clipPath id="XMLID_33_"> <use xlink:href="#XMLID_23_" style="overflow:visible;"></use> </clipPath> <g id="XMLID_20_" class="st4"> <defs> <rect id="XMLID_22_" x="-2803.5" y="-2942.4" width="5442.5" height="17013.5"></rect> </defs> <clipPath id="XMLID_34_"> <use xlink:href="#XMLID_22_" style="overflow:visible;"></use> </clipPath> <rect id="XMLID_21_" x="21.8" y="-5.4" class="st5" width="67.8" height="67.8"></rect> </g> </g> </svg> 