<?xml version="1.0" encoding="UTF-8"?> <!-- Generator: Adobe Illustrator 19.0.0, SVG Export Plug-In . SVG Version: 6.00 Build 0) --> <svg xmlns="http://www.w3.org/2000/svg" xmlns:xlink="http://www.w3.org/1999/xlink" id="Layer_1" x="0px" y="0px" viewBox="0 0 85 85" style="enable-background:new 0 0 85 85;" xml:space="preserve"> <style type="text/css"> .st0{clip-path:url(#XMLID_7_);} .st1{clip-path:url(#XMLID_8_);fill:#010101;} </style> <g id="XMLID_1_"> <defs> <path id="XMLID_5_" d="M64.3,31.4c-2.1-4.9-6.2-8.8-11.2-10.9c-8.2-3.5-17-2.9-24,1.7c-6.9,4.5-10.9,12.1-10.9,20.3 c0,12.5,9.8,23.2,22.2,24.2v-7.6c-6.6-1-11.6-6.7-11.6-13.5v-8.4c0-1.1,0.9-2,2-2h4.6v-6.8c0-1.1,0.9-2,2-2s2,0.9,2,2v6.9h6v-6.9 c0-1.1,0.9-2,2-2s2,0.9,2,2v6.9h4.5c1.1,0,2,0.9,2,2v8.4c0,3.8-1.6,7.4-4.4,10.1c-0.8,0.8-2.1,0.7-2.8-0.1 c-0.8-0.8-0.7-2.1,0.1-2.8c2-1.8,3.1-4.4,3.1-7v-6.5H32.9v6.3c0,5.3,4.3,9.6,9.6,9.6c1.1,0,2,0.9,2,2v9.5c0,1.1-0.5,2.2-1.3,3 c-0.8,0.7-1.7,1-2.7,1h-0.3c-14.6-1.2-26.1-13.6-26.1-28.3c0-9.5,4.8-18.4,12.7-23.7c8.2-5.4,18.3-6.2,27.8-2.1 c6,2.6,10.7,7.2,13.4,13.1c5.5,12.1,2.8,25.5-6.7,33.9c-0.8,0.8-2.1,0.7-2.8-0.2c-0.8-0.8-0.7-2.1,0.2-2.8 C66.8,53.4,69,41.9,64.3,31.4L64.3,31.4z"></path> </defs> <clipPath id="XMLID_7_"> <use xlink:href="#XMLID_5_" style="overflow:visible;"></use> </clipPath> <g id="XMLID_2_" class="st0"> <defs> <rect id="XMLID_3_" x="-4073.4" y="-2942.4" width="5442.5" height="17013.5"></rect> </defs> <clipPath id="XMLID_8_"> <use xlink:href="#XMLID_3_" style="overflow:visible;"></use> </clipPath> <rect id="XMLID_4_" x="0" y="0" class="st1" width="85" height="85"></rect> </g> </g> </svg> 