<?xml version="1.0" encoding="UTF-8"?> <!-- Generator: Adobe Illustrator 19.0.0, SVG Export Plug-In . SVG Version: 6.00 Build 0) --> <svg xmlns="http://www.w3.org/2000/svg" xmlns:xlink="http://www.w3.org/1999/xlink" id="Layer_1" x="0px" y="0px" viewBox="0 0 85 85" style="enable-background:new 0 0 85 85;" xml:space="preserve"> <style type="text/css"> .st0{clip-path:url(#SVGID_2_);} .st1{clip-path:url(#XMLID_10_);fill:#676767;} </style> <g> <defs> <path id="SVGID_1_" d="M52.6,32.7c-1.3,0-2.4-1.1-2.4-2.4s1.1-2.4,2.4-2.4c1.3,0,2.4,1.1,2.4,2.4S53.9,32.7,52.6,32.7z M52.6,24.7 c-3.1,0-5.6,2.5-5.6,5.6c0,3.1,2.5,5.6,5.6,5.6c3.1,0,5.6-2.5,5.6-5.6C58.2,27.2,55.7,24.7,52.6,24.7z M33.9,53.9L29,49.1 c4.7-11.6,15.2-29.9,27.6-29.9c2.5,0,3.7,0,6.5,0.6c0.6,2.8,0.6,4.1,0.6,6.5C63.8,38.7,45.4,49.3,33.9,53.9z M41.5,63.8V54 c4-1.9,8.5-4.5,12.8-7.8v10.1L41.5,63.8z M19.1,41.5l7.4-12.8h10.1c-3.2,4.2-5.8,8.8-7.8,12.8H19.1z M66,17.8 c-0.1-0.4-0.4-0.8-0.9-0.9c-3.9-1-5-1-8.5-1c-6.8,0-12.8,4.5-17.3,9.6H26.6c-1.1,0-2.2,0.6-2.8,1.6l-7.4,12.8 c-1.2,2.1,0.3,4.8,2.8,4.8h8.2c-0.9,1.9-1.4,3.3-1.9,4.4c-0.2,0.4-0.1,0.9,0.3,1.3l6.7,6.7c0.3,0.3,0.8,0.4,1.3,0.3 c1.1-0.4,2.5-1,4.4-1.9v8.3c0,2.5,2.7,4,4.8,2.8l12.8-7.4c1-0.6,1.6-1.6,1.6-2.8V43.6c5.1-4.6,9.6-10.5,9.6-17.3 C67,22.9,66.9,21.7,66,17.8z"></path> </defs> <clipPath id="SVGID_2_"> <use xlink:href="#SVGID_1_" style="overflow:visible;"></use> </clipPath> <g class="st0"> <defs> <rect id="XMLID_8_" x="-1700.8" y="-6176" width="3401.6" height="10633.5"></rect> </defs> <clipPath id="XMLID_10_"> <use xlink:href="#XMLID_8_" style="overflow:visible;"></use> </clipPath> <rect id="XMLID_9_" x="7.1" y="7.1" class="st1" width="68.7" height="68.7"></rect> </g> </g> </svg> 