<?xml version="1.0" encoding="UTF-8"?> <!-- Generator: Adobe Illustrator 19.0.0, SVG Export Plug-In . SVG Version: 6.00 Build 0) --> <svg xmlns="http://www.w3.org/2000/svg" xmlns:xlink="http://www.w3.org/1999/xlink" id="Layer_1" x="0px" y="0px" viewBox="0 0 85 85" style="enable-background:new 0 0 85 85;" xml:space="preserve"> <style type="text/css"> .st0{clip-path:url(#SVGID_2_);} .st1{clip-path:url(#XMLID_6_);fill:#676767;} </style> <g> <defs> <path id="SVGID_1_" d="M44.9,55.3v-2c0-0.7-0.5-1.2-1.2-1.2h-2.4c-0.7,0-1.2,0.5-1.2,1.2v2H26.6l9.7-12h-6.7l9.4-12h-6.3l9.9-11.2 l9.9,11.2h-6.3l9.4,12h-6.7l9.7,12H44.9z M60.9,53.3l-5.5-6.8c2.7,0,4.1-3.1,2.5-5.2l-5.3-6.8c2.6-0.2,3.9-3.3,2.2-5.3l-9.9-11.2 c-1.3-1.4-3.5-1.4-4.8,0l-9.9,11.2c-1.8,2-0.5,5.1,2.2,5.3l-5.3,6.8c-1.6,2.1-0.1,5.2,2.5,5.2l-5.5,6.8c-1.7,2.1-0.2,5.2,2.5,5.2 h13.5c0,3.6-0.4,5.6-3,8.2C36.7,67.2,37,68,37.7,68h9.6c0.7,0,1.1-0.9,0.6-1.4c-2.6-2.6-3-4.6-3-8.2h13.5 C61.1,58.5,62.6,55.3,60.9,53.3z"></path> </defs> <clipPath id="SVGID_2_"> <use xlink:href="#SVGID_1_" style="overflow:visible;"></use> </clipPath> <g class="st0"> <defs> <rect id="XMLID_3_" x="-1700.4" y="-6268.8" width="3401.6" height="10633.5"></rect> </defs> <clipPath id="XMLID_6_"> <use xlink:href="#XMLID_3_" style="overflow:visible;"></use> </clipPath> <rect id="XMLID_4_" x="14.5" y="8.1" class="st1" width="56" height="68.7"></rect> </g> </g> </svg> 