<?xml version="1.0" encoding="UTF-8"?> <!-- Generator: Adobe Illustrator 19.0.0, SVG Export Plug-In . SVG Version: 6.00 Build 0) --> <svg xmlns="http://www.w3.org/2000/svg" xmlns:xlink="http://www.w3.org/1999/xlink" id="Layer_1" x="0px" y="0px" viewBox="0 0 85 85" style="enable-background:new 0 0 85 85;" xml:space="preserve"> <style type="text/css"> .st0{clip-path:url(#SVGID_2_);} .st1{clip-path:url(#XMLID_11_);fill:#676767;} </style> <g> <defs> <path id="SVGID_1_" d="M58.3,63.8c-0.9,0-1.6-0.7-1.6-1.6c0-0.9,0.7-1.6,1.6-1.6c0.9,0,1.6,0.7,1.6,1.6 C59.9,63.1,59.2,63.8,58.3,63.8z M29.6,63.8c-0.9,0-1.6-0.7-1.6-1.6c0-0.9,0.7-1.6,1.6-1.6c0.9,0,1.6,0.7,1.6,1.6 C31.2,63.1,30.5,63.8,29.6,63.8z M71.8,57.4H21.6V16.7c0-0.4-0.4-0.8-0.8-0.8H9.7c-0.4,0-0.8,0.4-0.8,0.8v1.6 c0,0.4,0.4,0.8,0.8,0.8h8.8v40.7c0,0.4,0.4,0.8,0.8,0.8h5.9c-0.2,0.5-0.3,1-0.3,1.6c0,2.6,2.1,4.8,4.8,4.8c2.6,0,4.8-2.1,4.8-4.8 c0-0.6-0.1-1.1-0.3-1.6h19.7c-0.2,0.5-0.3,1-0.3,1.6c0,2.6,2.1,4.8,4.8,4.8c2.6,0,4.8-2.1,4.8-4.8c0-0.6-0.1-1.1-0.3-1.6h9 c0.4,0,0.8-0.4,0.8-0.8v-1.6C72.6,57.8,72.3,57.4,71.8,57.4z M31.2,25.5h15.9v22.3H31.2V25.5z M50.3,38.3h15.9v9.6H50.3V38.3z M50.3,25.5h9.6v9.6h-9.6V25.5z M29.6,51h38.3c0.9,0,1.6-0.7,1.6-1.6V36.7c0-0.9-0.7-1.6-1.6-1.6h-4.8V23.9c0-0.9-0.7-1.6-1.6-1.6 H29.6c-0.9,0-1.6,0.7-1.6,1.6v25.5C28,50.3,28.7,51,29.6,51z"></path> </defs> <clipPath id="SVGID_2_"> <use xlink:href="#SVGID_1_" style="overflow:visible;"></use> </clipPath> <g class="st0"> <defs> <rect id="XMLID_9_" x="-1700.8" y="-6363.8" width="3401.6" height="10633.5"></rect> </defs> <clipPath id="XMLID_11_"> <use xlink:href="#XMLID_9_" style="overflow:visible;"></use> </clipPath> <rect id="XMLID_10_" x="0" y="7.1" class="st1" width="81.5" height="68.7"></rect> </g> </g> </svg> 