<?xml version="1.0" encoding="UTF-8"?> <!-- Generator: Adobe Illustrator 19.0.0, SVG Export Plug-In . SVG Version: 6.00 Build 0) --> <svg xmlns="http://www.w3.org/2000/svg" xmlns:xlink="http://www.w3.org/1999/xlink" id="Layer_1" x="0px" y="0px" viewBox="0 0 85 85" style="enable-background:new 0 0 85 85;" xml:space="preserve"> <style type="text/css"> .st0{clip-path:url(#SVGID_2_);} .st1{clip-path:url(#XMLID_9_);fill:#676767;} </style> <g> <defs> <path id="SVGID_1_" d="M41.5,35.1c0.9,0,1.6,0.7,1.6,1.6c0,0.9-0.7,1.6-1.6,1.6s-1.6-0.7-1.6-1.6C39.9,35.8,40.6,35.1,41.5,35.1z M41.5,41.5c2.6,0,4.8-2.1,4.8-4.8c0-1.4-0.6-2.6-1.5-3.5l3-7c0.3-0.8,0-1.7-0.8-2.1c-0.8-0.3-1.7,0-2.1,0.8l-3,7 c-3.5-0.2-5.1,2.8-5.1,4.8C36.7,39.3,38.8,41.5,41.5,41.5z M63.8,60.6c0,1.8-1.4,3.2-3.2,3.2H22.3c-1.8,0-3.2-1.4-3.2-3.2V28.7 c0-1.8,1.4-3.2,3.2-3.2h4.5c-0.9,2-1.4,4.1-1.4,6.4c0,8.8,7.2,15.9,15.9,15.9s15.9-7.2,15.9-15.9c0-2.3-0.5-4.4-1.4-6.4h4.5 c1.8,0,3.2,1.4,3.2,3.2V60.6z M41.5,19.1c7,0,12.8,5.7,12.8,12.8c0,7-5.7,12.8-12.8,12.8c-7,0-12.8-5.7-12.8-12.8 C28.7,24.8,34.4,19.1,41.5,19.1z M60.6,22.3h-6.5c-2.9-3.8-7.5-6.4-12.7-6.4s-9.8,2.5-12.7,6.4h-6.5c-3.5,0-6.4,2.9-6.4,6.4v31.9 c0,3.5,2.9,6.4,6.4,6.4h38.3c3.5,0,6.4-2.9,6.4-6.4V28.7C67,25.2,64.1,22.3,60.6,22.3z"></path> </defs> <clipPath id="SVGID_2_"> <use xlink:href="#SVGID_1_" style="overflow:visible;"></use> </clipPath> <g class="st0"> <defs> <rect id="XMLID_7_" x="-2320.9" y="-6176" width="3401.6" height="10633.5"></rect> </defs> <clipPath id="XMLID_9_"> <use xlink:href="#XMLID_7_" style="overflow:visible;"></use> </clipPath> <rect id="XMLID_8_" x="7.1" y="7.1" class="st1" width="68.7" height="68.7"></rect> </g> </g> </svg> 