<?xml version="1.0" encoding="UTF-8"?> <!-- Generator: Adobe Illustrator 19.0.0, SVG Export Plug-In . SVG Version: 6.00 Build 0) --> <svg xmlns="http://www.w3.org/2000/svg" xmlns:xlink="http://www.w3.org/1999/xlink" id="Layer_1" x="0px" y="0px" viewBox="0 0 85 85" style="enable-background:new 0 0 85 85;" xml:space="preserve"> <style type="text/css"> .st0{clip-path:url(#SVGID_2_);} .st1{clip-path:url(#XMLID_7_);fill:#676767;} </style> <g> <defs> <path id="SVGID_1_" d="M42.9,52.1h-0.8c-0.7,0-1.2-0.5-1.2-1.2V34.1c0-0.7,0.5-1.2,1.2-1.2h0.8c0.7,0,1.2,0.5,1.2,1.2v16.7 C44.1,51.5,43.6,52.1,42.9,52.1z M42.5,64.8c-10.6,0-19.1-8.6-19.1-19.1c0-10.6,8.6-19.1,19.1-19.1c10.6,0,19.1,8.6,19.1,19.1 C61.7,56.3,53.1,64.8,42.5,64.8z M59.4,31.1l1.7-1.7c0.5-0.5,0.5-1.2,0-1.7l-0.6-0.6c-0.5-0.5-1.2-0.5-1.7,0l-1.7,1.7 c-3.6-3.1-8.1-5.1-13.1-5.4v-3.2h2.5c0.7,0,1.2-0.5,1.2-1.2v-0.8c0-0.7-0.5-1.2-1.2-1.2h-8c-0.7,0-1.2,0.5-1.2,1.2V19 c0,0.7,0.5,1.2,1.2,1.2h2.3v3.2c-11.5,0.9-20.6,10.5-20.6,22.3C20.2,58,30.2,68,42.5,68s22.3-10,22.3-22.3 C64.8,40.1,62.8,35,59.4,31.1z"></path> </defs> <clipPath id="SVGID_2_"> <use xlink:href="#SVGID_1_" style="overflow:visible;"></use> </clipPath> <g class="st0"> <defs> <rect id="XMLID_4_" x="-530.8" y="-2796.4" width="3401.6" height="10633.5"></rect> </defs> <clipPath id="XMLID_7_"> <use xlink:href="#XMLID_4_" style="overflow:visible;"></use> </clipPath> <rect id="XMLID_5_" x="11.3" y="8.1" class="st1" width="62.4" height="68.7"></rect> </g> </g> </svg> 