<?xml version="1.0" encoding="UTF-8"?> <!-- Generator: Adobe Illustrator 19.0.0, SVG Export Plug-In . SVG Version: 6.00 Build 0) --> <svg xmlns="http://www.w3.org/2000/svg" xmlns:xlink="http://www.w3.org/1999/xlink" id="Layer_1" x="0px" y="0px" viewBox="0 0 85 85" style="enable-background:new 0 0 85 85;" xml:space="preserve"> <style type="text/css"> .st0{clip-path:url(#SVGID_2_);} .st1{clip-path:url(#XMLID_10_);fill:#676767;} </style> <g> <defs> <path id="SVGID_1_" d="M60.1,51.4c-2.6,0-4.9,1.3-6.3,3.2h-1.6V45H68v9.6h-1.6C64.9,52.6,62.7,51.4,60.1,51.4z M60.1,64.1 c-2.6,0-4.8-2.1-4.8-4.8c0-2.6,2.1-4.8,4.8-4.8c2.6,0,4.8,2.1,4.8,4.8C64.8,62,62.7,64.1,60.1,64.1z M31.3,54.6 c-1.5-1.9-3.7-3.2-6.3-3.2c-2.6,0-4.9,1.3-6.3,3.2h-3.1c-1,0-1.7-0.6-1.7-1.5v-29c0-0.8,0.8-1.5,1.7-1.5h31.6c1,0,1.7,0.6,1.7,1.5 v30.4H31.3z M25,64.1c-2.6,0-4.8-2.1-4.8-4.8c0-2.6,2.1-4.8,4.8-4.8c2.6,0,4.8,2.1,4.8,4.8C29.8,62,27.6,64.1,25,64.1z M56.5,32.2 c0.8,0,1.7,0.3,2.3,0.9l8.4,8.4c0.1,0.1,0.1,0.2,0.2,0.3H52.1v-9.6L56.5,32.2L56.5,32.2z M73.6,54.6h-2.4V43.8 c0-1.7-0.7-3.3-1.9-4.5L61,30.9c-1.2-1.2-2.8-1.9-4.5-1.9h-4.4v-4.9c0-2.6-2.2-4.6-4.9-4.6H15.6c-2.7,0-4.9,2.1-4.9,4.6v29 c0,2.6,2.2,4.6,4.9,4.6h1.6c-0.1,0.5-0.2,1-0.2,1.6c0,4.4,3.6,8,8,8s8-3.6,8-8c0-0.5-0.1-1.1-0.2-1.6h19.5c-0.1,0.5-0.2,1-0.2,1.6 c0,4.4,3.6,8,8,8c4.4,0,8-3.6,8-8c0-0.5-0.1-1.1-0.2-1.6h5.7c0.4,0,0.8-0.4,0.8-0.8v-1.6C74.4,54.9,74.1,54.6,73.6,54.6z"></path> </defs> <clipPath id="SVGID_2_"> <use xlink:href="#SVGID_1_" style="overflow:visible;"></use> </clipPath> <g class="st0"> <defs> <rect id="XMLID_8_" x="-2320.9" y="-6363.8" width="3401.6" height="10633.5"></rect> </defs> <clipPath id="XMLID_10_"> <use xlink:href="#XMLID_8_" style="overflow:visible;"></use> </clipPath> <rect id="XMLID_9_" x="1.8" y="10.6" class="st1" width="81.5" height="65.6"></rect> </g> </g> </svg> 